<svg width="100" height="50" viewBox="0 0 100 50" fill="none" xmlns="http://www.w3.org/2000/svg">
<g clip-path="url(#clip0_1492_17965)">
<path fill-rule="evenodd" clip-rule="evenodd" d="M28.6664 12.7642V12.7756C28.655 12.7756 25.1198 12.7642 24.1769 16.0462C23.3128 19.0563 20.8778 27.3658 20.8105 27.5947H20.1367C20.1367 27.5947 17.6444 19.0993 16.7688 16.0347C15.8274 12.7541 12.2807 12.7656 12.2807 12.7656H4.19873V37.7369H12.2807V22.9049H12.9531L17.6673 37.7355H23.2799L27.9926 22.9164H28.6664V37.7355H36.7484V12.7642H28.6664ZM58.1845 12.7642C58.1845 12.7642 55.8167 12.9716 54.7065 15.3823L48.9809 27.5947H48.307V12.7642H40.2264V37.7355H47.8578C47.8578 37.7355 50.3386 37.518 51.4488 35.1187L57.0614 22.9049H57.7338V37.7355H65.8158V12.7642H58.1845ZM69.4083 24.1038V37.7355H77.4903V29.7751H86.2447C90.0603 29.7751 93.2923 27.4087 94.4941 24.1053H69.4083V24.1038Z" fill="#3E764F"/>
<path fill-rule="evenodd" clip-rule="evenodd" d="M86.2449 12.7642H68.2754C69.1739 17.5184 72.8436 21.334 77.5906 22.5787C78.6936 22.8688 79.8294 23.0155 80.9699 23.0151H94.819C94.9435 22.4471 94.9993 21.8705 94.9993 21.2696C94.9993 16.5698 91.0835 12.7642 86.2449 12.7642Z" fill="url(#paint0_linear_1492_17965)"/>
</g>
<defs>
<linearGradient id="paint0_linear_1492_17965" x1="68.2783" y1="17.8889" x2="94.9993" y2="17.8889" gradientUnits="userSpaceOnUse">
<stop stop-color="#47B1FB"/>
<stop offset="0.5" stop-color="#1785EB"/>
<stop offset="1" stop-color="#1F5DD8"/>
</linearGradient>
<clipPath id="clip0_1492_17965">
<rect width="91.5644" height="25.7525" fill="white" transform="translate(4 12)"/>
</clipPath>
</defs>
</svg>
