<svg width="100" height="50" fill="none" xmlns="http://www.w3.org/2000/svg"><g clip-path="url(#a)" fill-rule="evenodd" clip-rule="evenodd"><path d="M28.666 12.764v.012c-.011 0-3.546-.012-4.49 3.27-.863 3.01-3.298 11.32-3.365 11.549h-.674s-2.493-8.496-3.368-11.56c-.942-3.28-4.488-3.27-4.488-3.27H4.199v24.972h8.082V22.905h.672l4.714 14.83h5.613l4.713-14.819h.673v14.82h8.082V12.764h-8.082Zm29.518 0s-2.367.208-3.477 2.618L48.98 27.595h-.674v-14.83h-8.08v24.97h7.63s2.482-.217 3.592-2.616l5.612-12.214h.673v14.83h8.082v-24.97h-7.632Zm11.224 11.34v13.632h8.082v-7.96h8.755c3.815 0 7.047-2.367 8.25-5.67H69.407v-.002Z" fill="#3E764F"/><path d="M86.245 12.764h-17.97c.899 4.754 4.569 8.57 9.316 9.815 1.103.29 2.238.436 3.379.436h13.849c.124-.568.18-1.145.18-1.745 0-4.7-3.915-8.506-8.754-8.506Z" fill="url(#b)"/></g><defs><linearGradient id="b" x1="68.278" y1="17.889" x2="94.999" y2="17.889" gradientUnits="userSpaceOnUse"><stop stop-color="#47B1FB"/><stop offset=".5" stop-color="#1785EB"/><stop offset="1" stop-color="#1F5DD8"/></linearGradient><clipPath id="a"><path fill="#fff" transform="translate(4 12)" d="M0 0h91.564v25.753H0z"/></clipPath></defs></svg>